<svg width="137" height="28" viewBox="0 0 137 28" fill="none" xmlns="http://www.w3.org/2000/svg">
<path d="M8.97781 8.464C10.5138 8.464 11.7458 8.976 12.6738 10C13.6018 11.008 14.0658 12.4 14.0658 14.176V22H9.98581V14.728C9.98581 13.832 9.75381 13.136 9.28981 12.64C8.82581 12.144 8.20181 11.896 7.41781 11.896C6.63381 11.896 6.00981 12.144 5.54581 12.64C5.08181 13.136 4.84981 13.832 4.84981 14.728V22H0.745813V4.24H4.84981V10.408C5.26581 9.816 5.83381 9.344 6.55381 8.992C7.27381 8.64 8.08181 8.464 8.97781 8.464ZM16.1017 15.28C16.1017 13.904 16.3577 12.696 16.8697 11.656C17.3977 10.616 18.1097 9.816 19.0057 9.256C19.9017 8.696 20.9017 8.416 22.0057 8.416C22.9497 8.416 23.7737 8.608 24.4777 8.992C25.1977 9.376 25.7497 9.88 26.1337 10.504V8.608H30.2377V22H26.1337V20.104C25.7337 20.728 25.1737 21.232 24.4537 21.616C23.7497 22 22.9257 22.192 21.9817 22.192C20.8937 22.192 19.9017 21.912 19.0057 21.352C18.1097 20.776 17.3977 19.968 16.8697 18.928C16.3577 17.872 16.1017 16.656 16.1017 15.28ZM26.1337 15.304C26.1337 14.28 25.8457 13.472 25.2697 12.88C24.7097 12.288 24.0217 11.992 23.2057 11.992C22.3897 11.992 21.6937 12.288 21.1177 12.88C20.5577 13.456 20.2777 14.256 20.2777 15.28C20.2777 16.304 20.5577 17.12 21.1177 17.728C21.6937 18.32 22.3897 18.616 23.2057 18.616C24.0217 18.616 24.7097 18.32 25.2697 17.728C25.8457 17.136 26.1337 16.328 26.1337 15.304ZM37.3108 10.504C37.6948 9.88 38.2468 9.376 38.9668 8.992C39.6868 8.608 40.5108 8.416 41.4388 8.416C42.5428 8.416 43.5428 8.696 44.4388 9.256C45.3348 9.816 46.0388 10.616 46.5508 11.656C47.0788 12.696 47.3428 13.904 47.3428 15.28C47.3428 16.656 47.0788 17.872 46.5508 18.928C46.0388 19.968 45.3348 20.776 44.4388 21.352C43.5428 21.912 42.5428 22.192 41.4388 22.192C40.4948 22.192 39.6708 22.008 38.9668 21.64C38.2628 21.256 37.7108 20.752 37.3108 20.128V22H33.2068V4.24H37.3108V10.504ZM43.1668 15.28C43.1668 14.256 42.8788 13.456 42.3028 12.88C41.7428 12.288 41.0468 11.992 40.2148 11.992C39.3988 11.992 38.7028 12.288 38.1268 12.88C37.5668 13.472 37.2868 14.28 37.2868 15.304C37.2868 16.328 37.5668 17.136 38.1268 17.728C38.7028 18.32 39.3988 18.616 40.2148 18.616C41.0308 18.616 41.7268 18.32 42.3028 17.728C42.8788 17.12 43.1668 16.304 43.1668 15.28ZM55.2778 11.92C56.0618 11.888 56.6378 11.72 57.0058 11.416C57.3738 11.096 57.5578 10.648 57.5578 10.072C57.5578 9.64 57.4778 8.784 57.3178 7.504C57.3018 7.376 57.2538 6.968 57.1738 6.28C57.0938 5.576 57.0538 4.944 57.0538 4.384C57.0538 3.024 57.4698 1.968 58.3018 1.216C59.1338 0.447999 60.2458 0.0639992 61.6378 0.0639992H63.3658V3.424H62.4298C61.9178 3.424 61.5498 3.536 61.3258 3.76C61.1018 3.984 60.9898 4.328 60.9898 4.792C60.9898 5.144 61.0538 5.944 61.1818 7.192C61.3258 8.744 61.3978 9.76 61.3978 10.24C61.3978 11.12 61.1818 11.848 60.7498 12.424C60.3338 13 59.6938 13.368 58.8298 13.528V13.576C59.6938 13.752 60.3338 14.128 60.7498 14.704C61.1818 15.264 61.3978 15.992 61.3978 16.888C61.3978 17.368 61.3258 18.384 61.1818 19.936C61.0538 21.152 60.9898 21.944 60.9898 22.312C60.9898 22.776 61.1018 23.12 61.3258 23.344C61.5498 23.584 61.9178 23.704 62.4298 23.704H63.3658V27.064H61.6378C60.2458 27.064 59.1338 26.68 58.3018 25.912C57.4698 25.16 57.0538 24.096 57.0538 22.72C57.0538 22.16 57.0938 21.536 57.1738 20.848C57.2538 20.144 57.3018 19.728 57.3178 19.6C57.4778 18.32 57.5578 17.464 57.5578 17.032C57.5578 16.488 57.3738 16.056 57.0058 15.736C56.6378 15.4 56.0618 15.216 55.2778 15.184V11.92ZM69.1743 12.616C68.4543 12.616 67.8623 12.408 67.3983 11.992C66.9503 11.56 66.7263 11.032 66.7263 10.408C66.7263 9.768 66.9503 9.232 67.3983 8.8C67.8623 8.368 68.4543 8.152 69.1743 8.152C69.8783 8.152 70.4543 8.368 70.9023 8.8C71.3663 9.232 71.5983 9.768 71.5983 10.408C71.5983 11.032 71.3663 11.56 70.9023 11.992C70.4543 12.408 69.8783 12.616 69.1743 12.616ZM71.5503 18.208L68.8863 25.096H66.2703L67.6623 18.208H71.5503ZM83.1826 15.184C82.3986 15.216 81.8226 15.4 81.4546 15.736C81.0866 16.056 80.9026 16.488 80.9026 17.032C80.9026 17.464 80.9826 18.32 81.1426 19.6C81.1586 19.728 81.2066 20.144 81.2866 20.848C81.3666 21.536 81.4066 22.16 81.4066 22.72C81.4066 24.096 80.9906 25.16 80.1586 25.912C79.3266 26.68 78.2146 27.064 76.8226 27.064H75.0946V23.704H76.0306C76.5426 23.704 76.9106 23.584 77.1346 23.344C77.3586 23.12 77.4706 22.776 77.4706 22.312C77.4706 21.944 77.4066 21.152 77.2786 19.936C77.1346 18.384 77.0626 17.368 77.0626 16.888C77.0626 15.992 77.2706 15.264 77.6866 14.704C78.1186 14.128 78.7666 13.752 79.6306 13.576V13.528C78.7666 13.368 78.1186 13 77.6866 12.424C77.2706 11.848 77.0626 11.12 77.0626 10.24C77.0626 9.76 77.1346 8.744 77.2786 7.192C77.4066 5.944 77.4706 5.144 77.4706 4.792C77.4706 4.328 77.3586 3.984 77.1346 3.76C76.9106 3.536 76.5426 3.424 76.0306 3.424H75.0946V0.0639992H76.8226C78.2146 0.0639992 79.3266 0.447999 80.1586 1.216C80.9906 1.968 81.4066 3.024 81.4066 4.384C81.4066 4.944 81.3666 5.576 81.2866 6.28C81.2066 6.968 81.1586 7.376 81.1426 7.504C80.9826 8.784 80.9026 9.64 80.9026 10.072C80.9026 10.648 81.0866 11.096 81.4546 11.416C81.8226 11.72 82.3986 11.888 83.1826 11.92V15.184ZM91.1251 15.28C91.1251 13.904 91.3811 12.696 91.8931 11.656C92.4211 10.616 93.1331 9.816 94.0291 9.256C94.9251 8.696 95.9251 8.416 97.0291 8.416C97.9091 8.416 98.7091 8.6 99.4291 8.968C100.165 9.336 100.741 9.832 101.157 10.456V4.24H105.261V22H101.157V20.08C100.773 20.72 100.221 21.232 99.5011 21.616C98.7971 22 97.9731 22.192 97.0291 22.192C95.9251 22.192 94.9251 21.912 94.0291 21.352C93.1331 20.776 92.4211 19.968 91.8931 18.928C91.3811 17.872 91.1251 16.656 91.1251 15.28ZM101.157 15.304C101.157 14.28 100.869 13.472 100.293 12.88C99.7331 12.288 99.0451 11.992 98.2291 11.992C97.4131 11.992 96.7171 12.288 96.1411 12.88C95.5811 13.456 95.3011 14.256 95.3011 15.28C95.3011 16.304 95.5811 17.12 96.1411 17.728C96.7171 18.32 97.4131 18.616 98.2291 18.616C99.0451 18.616 99.7331 18.32 100.293 17.728C100.869 17.136 101.157 16.328 101.157 15.304ZM120.854 15.088C120.854 15.472 120.83 15.872 120.782 16.288H111.494C111.558 17.12 111.822 17.76 112.286 18.208C112.766 18.64 113.35 18.856 114.038 18.856C115.062 18.856 115.774 18.424 116.174 17.56H120.542C120.318 18.44 119.91 19.232 119.318 19.936C118.742 20.64 118.014 21.192 117.134 21.592C116.254 21.992 115.27 22.192 114.182 22.192C112.87 22.192 111.702 21.912 110.678 21.352C109.654 20.792 108.854 19.992 108.278 18.952C107.702 17.912 107.414 16.696 107.414 15.304C107.414 13.912 107.694 12.696 108.254 11.656C108.83 10.616 109.63 9.816 110.654 9.256C111.678 8.696 112.854 8.416 114.182 8.416C115.478 8.416 116.63 8.688 117.638 9.232C118.646 9.776 119.43 10.552 119.99 11.56C120.566 12.568 120.854 13.744 120.854 15.088ZM116.654 14.008C116.654 13.304 116.414 12.744 115.934 12.328C115.454 11.912 114.854 11.704 114.134 11.704C113.446 11.704 112.862 11.904 112.382 12.304C111.918 12.704 111.63 13.272 111.518 14.008H116.654ZM129.043 18.16L131.947 8.608H136.315L131.563 22H126.499L121.747 8.608H126.139L129.043 18.16Z" fill="white"/>
</svg>
